{
  "accessors": [
    {
      "bufferView": 3,
      "componentType": 5126,
      "count": 5117,
      "max": [
        0.03250892832875252,
        0.10700036585330963,
        0.19509874284267426
      ],
      "min": [
        -0.031212512403726578,
        -0.05820717290043831,
        -0.02388281561434269
      ],
      "type": "VEC3"
    },
    {
      "bufferView": 3,
      "byteOffset": 61404,
      "componentType": 5126,
      "count": 5117,
      "max": [
        0.9995842576026917,
        0.9998160600662231,
        0.9994279742240906
      ],
      "min": [
        -0.9999617338180542,
        -0.9998490214347839,
        -0.7639898061752319
      ],
      "type": "VEC3"
    },
    {
      "bufferView": 4,
      "componentType": 5126,
      "count": 5117,
      "max": [
        0.9990798830986023,
        0.999802827835083,
        0.9994681477546692,
        1.0
      ],
      "min": [
        -0.9999622106552124,
        -0.9976323843002319,
        -0.9999280571937561,
        1.0
      ],
      "type": "VEC4"
    },
    {
      "bufferView": 2,
      "componentType": 5126,
      "count": 5117,
      "max": [
        0.980463981628418,
        0.9922013878822327
      ],
      "min": [
        0.006423844024538994,
        0.009120883420109749
      ],
      "type": "VEC2"
    },
    {
      "bufferView": 1,
      "componentType": 5125,
      "count": 27858,
      "type": "SCALAR"
    },
    {
      "bufferView": 5,
      "componentType": 5126,
      "count": 21,
      "max": [
        1.0,
        0.3428502380847931,
        0.9828011393547058,
        0.0,
        0.9936710000038147,
        1.0,
        0.8801782131195068,
        0.0,
        0.5739288926124573,
        0.9978218078613281,
        1.0,
        0.0,
        0.027593350037932396,
        0.0,
        0.014463490806519985,
        1.0
      ],
      "min": [
        -0.9086794853210449,
        -0.3890347182750702,
        -0.9998008608818054,
        0.0,
        -0.9977806210517883,
        -0.27620017528533936,
        -0.29194965958595276,
        0.0,
        -0.3079525828361511,
        0.0,
        -0.7014642953872681,
        0.0,
        -0.02162312902510166,
        -0.1591954529285431,
        -0.04943177476525307,
        1.0
      ],
      "type": "MAT4"
    },
    {
      "bufferView": 0,
      "componentType": 5123,
      "count": 5117,
      "type": "VEC4"
    },
    {
      "bufferView": 4,
      "byteOffset": 81872,
      "componentType": 5126,
      "count": 5117,
      "max": [
        1.0,
        0.49994993209838867,
        0.3143250048160553,
        0.2060754895210266
      ],
      "min": [
        0.2851378619670868,
        0.0,
        0.0,
        0.0
      ],
      "type": "VEC4"
    }
  ],
  "asset": {
    "extras": {
      "author": "FFeller (https://sketchfab.com/FFeller)",
      "license": "CC-BY-4.0 (http://creativecommons.org/licenses/by/4.0/)",
      "source": "https://sketchfab.com/3d-models/hand-for-vr-bee4147a048e41aeb70158f430178009",
      "title": "Hand for VR"
    },
    "generator": "Sketchfab-12.67.0",
    "version": "2.0"
  },
  "bufferViews": [
    {
      "buffer": 0,
      "byteLength": 40936,
      "byteStride": 8,
      "name": "shortBufferViews",
      "target": 34962
    },
    {
      "buffer": 0,
      "byteLength": 111432,
      "byteOffset": 40936,
      "name": "floatBufferViews",
      "target": 34963
    },
    {
      "buffer": 0,
      "byteLength": 40936,
      "byteOffset": 152368,
      "byteStride": 8,
      "name": "floatBufferViews",
      "target": 34962
    },
    {
      "buffer": 0,
      "byteLength": 122808,
      "byteOffset": 193304,
      "byteStride": 12,
      "name": "floatBufferViews",
      "target": 34962
    },
    {
      "buffer": 0,
      "byteLength": 163744,
      "byteOffset": 316112,
      "byteStride": 16,
      "name": "floatBufferViews",
      "target": 34962
    },
    {
      "buffer": 0,
      "byteLength": 1344,
      "byteOffset": 479856,
      "name": "floatBufferViews"
    }
  ],
  "buffers": [
    {
      "byteLength": 481200,
      "uri": "scene.bin"
    }
  ],
  "images": [
    {
      "uri": "textures/skin_baseColor.jpeg"
    },
    {
      "uri": "textures/skin_normal.png"
    }
  ],
  "materials": [
    {
      "doubleSided": true,
      "name": "skin",
      "normalTexture": {
        "index": 1
      },
      "pbrMetallicRoughness": {
        "baseColorTexture": {
          "index": 0
        },
        "metallicFactor": 0.0
      }
    }
  ],
  "meshes": [
    {
      "name": "elbow mesh_skin_0",
      "primitives": [
        {
          "attributes": {
            "JOINTS_0": 6,
            "NORMAL": 1,
            "POSITION": 0,
            "TANGENT": 2,
            "TEXCOORD_0": 3,
            "WEIGHTS_0": 7
          },
          "indices": 4,
          "material": 0,
          "mode": 4
        }
      ]
    }
  ],
  "nodes": [
    {
      "children": [
        1
      ],
      "matrix": [
        1.0,
        0.0,
        0.0,
        0.0,
        0.0,
        2.220446049250313e-16,
        -1.0,
        0.0,
        0.0,
        1.0,
        2.220446049250313e-16,
        0.0,
        0.0,
        0.0,
        0.0,
        1.0
      ],
      "name": "Sketchfab_model"
    },
    {
      "children": [
        2
      ],
      "matrix": [
        1.0,
        0.0,
        0.0,
        0.0,
        0.0,
        0.0,
        1.0,
        0.0,
        0.0,
        -1.0,
        0.0,
        0.0,
        0.0,
        0.0,
        0.0,
        1.0
      ],
      "name": "5b9ddf1fd1784ca89a9cbe027eb87d41.fbx"
    },
    {
      "children": [
        3
      ],
      "name": "RootNode"
    },
    {
      "children": [
        4
      ],
      "matrix": [
        100.0,
        0.0,
        0.0,
        0.0,
        0.0,
        -1.629206793918314e-05,
        -99.99999999999868,
        0.0,
        0.0,
        99.99999999999868,
        -1.629206793918314e-05,
        0.0,
        0.0,
        0.0,
        0.0,
        1.0
      ],
      "name": "m_ca01_skeleton"
    },
    {
      "children": [
        5,
        27,
        26
      ],
      "name": "Object_4"
    },
    {
      "children": [
        6
      ],
      "name": "_rootJoint"
    },
    {
      "children": [
        7,
        10,
        14,
        18,
        22
      ],
      "name": "hand_R_00",
      "rotation": [
        0.6668322682380676,
        -0.06851866096258163,
        0.7409919500350952,
        0.03963532671332359
      ],
      "scale": [
        0.9999966025352478,
        0.9999998807907104,
        0.9999995827674866
      ]
    },
    {
      "children": [
        8
      ],
      "name": "thumb01_R_01",
      "rotation": [
        0.5775807499885559,
        0.6483532786369324,
        -0.06264153122901917,
        0.492051362991333
      ],
      "scale": [
        1.0,
        1.0000001192092896,
        1.0000001192092896
      ],
      "translation": [
        0.025397174060344696,
        0.02663630247116089,
        0.005470578093081713
      ]
    },
    {
      "children": [
        9
      ],
      "name": "thumb02_R_02",
      "rotation": [
        -0.03379277139902115,
        -0.009650097228586674,
        -0.25083449482917786,
        0.967391848564148
      ],
      "scale": [
        1.0,
        1.0000001192092896,
        0.9999999403953552
      ],
      "translation": [
        1.3969838619232178e-09,
        0.03533530235290527,
        -2.3283064365386963e-09
      ]
    },
    {
      "name": "thumb03_R_03",
      "rotation": [
        -0.24214394390583038,
        -0.015223522670567036,
        0.015279990620911121,
        0.9700005650520325
      ],
      "translation": [
        1.3969838619232178e-09,
        0.03805762529373169,
        -8.731149137020111e-09
      ]
    },
    {
      "children": [
        11
      ],
      "name": "index00_R_04",
      "rotation": [
        0.05702250450849533,
        0.9874218702316284,
        -0.12326950579881668,
        0.08093903958797455
      ],
      "scale": [
        1.0,
        0.9999998211860657,
        0.9999999403953552
      ],
      "translation": [
        0.02926718443632126,
        0.03250720724463463,
        0.010994828306138515
      ]
    },
    {
      "children": [
        12
      ],
      "name": "index01_R_05",
      "rotation": [
        -0.277218222618103,
        0.09475788474082947,
        0.09355023503303528,
        0.9515352845191956
      ],
      "scale": [
        0.9999999403953552,
        1.0,
        0.9999999403953552
      ],
      "translation": [
        -3.725290298461914e-09,
        0.0619182325899601,
        6.984919309616089e-10
      ]
    },
    {
      "children": [
        13
      ],
      "name": "index02_R_06",
      "rotation": [
        0.09000087529420853,
        -0.049480222165584564,
        -0.022094305604696274,
        0.9944663643836975
      ],
      "scale": [
        1.0,
        1.0000001192092896,
        0.9999999403953552
      ],
      "translation": [
        -3.4924596548080444e-10,
        0.03990388661623001,
        8.149072527885437e-10
      ]
    },
    {
      "name": "index03_R_07",
      "rotation": [
        -0.11784529685974121,
        0.0548291951417923,
        -0.028042711317539215,
        0.9911205172538757
      ],
      "scale": [
        0.9999999403953552,
        0.9999999403953552,
        0.9999998211860657
      ],
      "translation": [
        -3.958120942115784e-09,
        0.025050703436136246,
        -1.2223608791828156e-09
      ]
    },
    {
      "children": [
        15
      ],
      "name": "middle00_R_08",
      "rotation": [
        -0.013768507167696953,
        0.994278609752655,
        -0.08682167530059814,
        0.060685139149427414
      ],
      "scale": [
        0.9999999403953552,
        0.9999999403953552,
        0.9999999403953552
      ],
      "translation": [
        0.01554309856146574,
        0.03228983283042908,
        0.0050765275955200195
      ]
    },
    {
      "children": [
        16
      ],
      "name": "middle01_R_09",
      "rotation": [
        -0.23083432018756866,
        0.08181025087833405,
        0.06598465889692307,
        0.96729975938797
      ],
      "scale": [
        1.0,
        0.9999999403953552,
        1.0000001192092896
      ],
      "translation": [
        -8.149072527885437e-10,
        0.05950172618031502,
        1.6589183360338211e-09
      ]
    },
    {
      "children": [
        17
      ],
      "name": "middle02_R_010",
      "rotation": [
        0.09226074069738388,
        0.032879382371902466,
        -0.00029115614597685635,
        0.9951918721199036
      ],
      "translation": [
        -5.51808625459671e-08,
        0.04380122944712639,
        -2.176966518163681e-07
      ]
    },
    {
      "name": "middle03_R_011",
      "rotation": [
        -0.08704736828804016,
        -0.07451611757278442,
        -0.01876516453921795,
        0.9932361245155334
      ],
      "scale": [
        1.0,
        1.0,
        0.9999999403953552
      ],
      "translation": [
        -9.313225746154785e-10,
        0.029658129438757896,
        -1.6298145055770874e-09
      ]
    },
    {
      "children": [
        19
      ],
      "name": "ring00_R_012",
      "rotation": [
        -0.044248733669519424,
        0.9972383975982666,
        -0.05116256698966026,
        0.030660463497042656
      ],
      "scale": [
        0.9999999403953552,
        1.000000238418579,
        0.9999999403953552
      ],
      "translation": [
        -0.004181671887636185,
        0.032394133508205414,
        0.002263751346617937
      ]
    },
    {
      "children": [
        20
      ],
      "name": "ring01_R_013",
      "rotation": [
        -0.21001632511615753,
        0.052492015063762665,
        0.0029319666791707277,
        0.9762834310531616
      ],
      "scale": [
        1.0,
        1.0000001192092896,
        1.0
      ],
      "translation": [
        5.820766091346741e-10,
        0.053032100200653076,
        -1.0186340659856796e-09
      ]
    },
    {
      "children": [
        21
      ],
      "name": "ring02_R_014",
      "rotation": [
        0.0669064000248909,
        -0.009801751002669334,
        0.014562031254172325,
        0.9976048469543457
      ],
      "scale": [
        1.0,
        0.9999998807907104,
        1.0
      ],
      "translation": [
        9.022187441587448e-10,
        0.04294310882687569,
        -1.3969838619232178e-09
      ]
    },
    {
      "name": "ring03_R_015",
      "rotation": [
        -0.09504767507314682,
        0.006289093755185604,
        -0.004265541676431894,
        0.9954438209533691
      ],
      "translation": [
        1.7462298274040222e-09,
        0.02811305783689022,
        -1.1641532182693481e-09
      ]
    },
    {
      "children": [
        23
      ],
      "name": "pinky00_R_016",
      "rotation": [
        -0.044466596096754074,
        0.9985829591751099,
        0.0026021141093224287,
        0.029120419174432755
      ],
      "scale": [
        1.0000001192092896,
        1.0,
        0.9999999403953552
      ],
      "translation": [
        -0.02460193820297718,
        0.029882118105888367,
        0.0032641198486089706
      ]
    },
    {
      "children": [
        24
      ],
      "name": "pinky01_R_017",
      "rotation": [
        -0.1595844030380249,
        0.07313241064548492,
        -0.0915621817111969,
        0.9802045822143555
      ],
      "scale": [
        1.0,
        0.9999999403953552,
        1.0
      ],
      "translation": [
        5.820766091346741e-10,
        0.04803260788321495,
        1.5133991837501526e-09
      ]
    },
    {
      "children": [
        25
      ],
      "name": "pinky02_R_018",
      "rotation": [
        0.06452430784702301,
        -0.028019925579428673,
        0.009784027002751827,
        0.9974747896194458
      ],
      "scale": [
        0.9999998807907104,
        0.9999998807907104,
        0.9999999403953552
      ],
      "translation": [
        -8.731150524798892e-11,
        0.03517456352710724,
        -1.0477378964424133e-09
      ]
    },
    {
      "name": "pinky03_R_019",
      "rotation": [
        -0.1332976520061493,
        0.03337010368704796,
        0.010154281742870808,
        0.990462064743042
      ],
      "scale": [
        0.9999999403953552,
        1.0,
        0.9999999403953552
      ],
      "translation": [
        1.0477378964424133e-09,
        0.01998014934360981,
        -1.1641532182693481e-09
      ]
    },
    {
      "matrix": [
        100.00000844656935,
        3.420676648602239e-07,
        -1.3258635949142672e-06,
        0.0,
        -1.3258635515037151e-06,
        -2.1008644652828484e-07,
        -100.00000522663646,
        0.0,
        -3.420676612653807e-07,
        100.00000658135265,
        -2.1008644483900958e-07,
        0.0,
        3.7252905137371926e-07,
        -1.8626452247928403e-07,
        -1.1175871348466668e-06,
        1.0
      ],
      "name": "Object_26"
    },
    {
      "mesh": 0,
      "name": "Object_27",
      "skin": 0
    }
  ],
  "samplers": [
    {
      "magFilter": 9729,
      "minFilter": 9987,
      "wrapS": 10497,
      "wrapT": 10497
    }
  ],
  "scene": 0,
  "scenes": [
    {
      "name": "Sketchfab_Scene",
      "nodes": [
        0
      ]
    }
  ],
  "skins": [
    {
      "inverseBindMatrices": 5,
      "joints": [
        5,
        6,
        7,
        8,
        9,
        10,
        11,
        12,
        13,
        14,
        15,
        16,
        17,
        18,
        19,
        20,
        21,
        22,
        23,
        24,
        25
      ],
      "skeleton": 5
    }
  ],
  "textures": [
    {
      "sampler": 0,
      "source": 0
    },
    {
      "sampler": 0,
      "source": 1
    }
  ]
}
